<?xml version="1.0" encoding="utf-8"?>
<!-- Generator: Adobe Illustrator 24.1.2, SVG Export Plug-In . SVG Version: 6.00 Build 0)  -->
<svg version="1.1" id="Screens_1_" xmlns="http://www.w3.org/2000/svg" xmlns:xlink="http://www.w3.org/1999/xlink" x="0px" y="0px"
	 viewBox="0 0 2048 1080" style="enable-background:new 0 0 2048 1080;" xml:space="preserve">
<style type="text/css">
	.st0{fill:#F2F2F2;stroke:#4D4D4D;stroke-width:3.7113;stroke-miterlimit:10;}
	.st1{fill:none;stroke:#4D4D4D;stroke-width:4;stroke-miterlimit:10;}
	.st2{fill:#F15A24;stroke:#4D4D4D;stroke-width:3.7113;stroke-miterlimit:10;}
	.st3{fill:#FF00FF;stroke:#4D4D4D;stroke-width:3.7113;stroke-miterlimit:10;}
	.st4{fill:#29ABE2;stroke:#4D4D4D;stroke-width:3.7113;stroke-miterlimit:10;}
	.st5{fill:#22B573;stroke:#4D4D4D;stroke-width:3.7113;stroke-miterlimit:10;}
	.st6{fill:#FBB03B;stroke:#4D4D4D;stroke-width:3.7113;stroke-miterlimit:10;}
	.st7{fill:#8CC63F;stroke:#4D4D4D;stroke-width:3.7113;stroke-miterlimit:10;}
	.st8{fill:#D6E9FF;stroke:#828282;stroke-width:4;stroke-miterlimit:10;}
	.st9{fill:#F7E8C6;fill-opacity:0.5;stroke:#000000;stroke-width:4;stroke-miterlimit:10;}
	.st10{fill:#999999;stroke:#000000;stroke-width:4;stroke-miterlimit:10;}
	.st11{fill:none;stroke:#000000;stroke-width:4;stroke-miterlimit:10;}
	.st12{fill:none;stroke:#000000;stroke-width:1.5396;stroke-miterlimit:10;}
</style>
<circle class="st0" cx="-1676" cy="508" r="270"/>
<path class="st1" d="M-1769.9,297.3l187.9-0.5c6.2,0,10,6.6,7,12l-94,163.1c-3.1,5.3-10.8,5.3-13.9,0l-93.9-162.6
	C-1779.9,304-1776.1,297.4-1769.9,297.3z"/>
<circle class="st0" cx="-1043.5" cy="508.1" r="270"/>
<path class="st1" d="M-1137.9,297.3l187.9-0.5c6.2,0,10,6.6,6.9,12l-94,163.1c-3.1,5.3-10.8,5.3-13.9,0l-93.9-162.6
	C-1147.9,304-1144.1,297.4-1137.9,297.3z"/>
<circle class="st2" cx="-1101" cy="331" r="15"/>
<circle class="st3" cx="-1070.6" cy="395.4" r="9.4"/>
<path class="st4" d="M-1076.7,368.1l-9.7-7.1c-1.8-1.3-2.2-3.8-0.9-5.6l28.4-38.7c1.3-1.8,3.8-2.2,5.6-0.9l9.7,7.1
	c1.8,1.3,2.2,3.8,0.9,5.6l-28.4,38.7C-1072.4,369-1074.9,369.4-1076.7,368.1z"/>
<path class="st5" d="M-984.2,310h-19.6c-1.4,0-2.8,0.8-3.5,2l-9.8,17c-0.7,1.2-0.7,2.8,0,4l9.8,17c0.7,1.2,2,2,3.5,2h19.6
	c1.4,0,2.8-0.8,3.5-2l9.8-17c0.7-1.2,0.7-2.8,0-4l-9.8-17C-981.4,310.8-982.8,310-984.2,310z"/>
<path class="st6" d="M-1028.4,357.1l4.7,9.4c0.6,1.2,1.7,2,3,2.2l10.4,1.5c3.3,0.5,4.6,4.5,2.2,6.8l-7.5,7.3
	c-0.9,0.9-1.4,2.2-1.2,3.5l1.8,10.4c0.6,3.3-2.9,5.8-5.8,4.2l-9.3-4.9c-1.2-0.6-2.6-0.6-3.7,0l-9.3,4.9c-2.9,1.5-6.4-1-5.8-4.2
	l1.8-10.4c0.2-1.3-0.2-2.6-1.1-3.5l-7.5-7.3c-2.4-2.3-1.1-6.4,2.2-6.8l10.4-1.5c1.3-0.2,2.4-1,3-2.2l4.7-9.4
	C-1034.1,354.1-1029.9,354.1-1028.4,357.1z"/>
<path class="st7" d="M-1034.1,414.3c3-0.8,5.7,1.9,4.9,4.9l-3.6,13.3l-3.6,13.3c-0.8,3-4.5,4-6.7,1.8l-9.8-9.8l-9.8-9.8
	c-2.2-2.2-1.2-5.9,1.8-6.7l13.3-3.6L-1034.1,414.3z"/>
<circle class="st0" cx="-410.5" cy="508.1" r="270"/>
<path class="st1" d="M-504.9,297.3l187.9-0.5c6.2,0,10,6.6,6.9,12l-94,163.1c-3.1,5.3-10.8,5.3-13.9,0l-93.9-162.6
	C-514.9,304-511.1,297.4-504.9,297.3z"/>
<circle class="st2" cx="-468" cy="331" r="15"/>
<circle class="st3" cx="-437.6" cy="395.4" r="9.4"/>
<path class="st4" d="M-443.7,368.1l-9.7-7.1c-1.8-1.3-2.2-3.8-0.9-5.6l28.4-38.7c1.3-1.8,3.8-2.2,5.6-0.9l9.7,7.1
	c1.8,1.3,2.2,3.8,0.9,5.6l-28.4,38.7C-439.4,369-441.9,369.4-443.7,368.1z"/>
<path class="st5" d="M-351.2,310h-19.6c-1.4,0-2.8,0.8-3.5,2l-9.8,17c-0.7,1.2-0.7,2.8,0,4l9.8,17c0.7,1.2,2,2,3.5,2h19.6
	c1.4,0,2.8-0.8,3.5-2l9.8-17c0.7-1.2,0.7-2.8,0-4l-9.8-17C-348.4,310.8-349.8,310-351.2,310z"/>
<path class="st6" d="M-395.4,357.1l4.7,9.4c0.6,1.2,1.7,2,3,2.2l10.4,1.5c3.3,0.5,4.6,4.5,2.2,6.8l-7.5,7.3
	c-0.9,0.9-1.4,2.2-1.2,3.5l1.8,10.4c0.6,3.3-2.9,5.8-5.8,4.2l-9.3-4.9c-1.2-0.6-2.6-0.6-3.7,0l-9.3,4.9c-2.9,1.5-6.4-1-5.8-4.2
	l1.8-10.4c0.2-1.3-0.2-2.6-1.2-3.5l-7.5-7.3c-2.4-2.3-1.1-6.4,2.2-6.8l10.4-1.5c1.3-0.2,2.4-1,3-2.2l4.7-9.4
	C-401.1,354.1-396.9,354.1-395.4,357.1z"/>
<path class="st7" d="M-401.1,414.3c3-0.8,5.7,1.9,4.9,4.9l-3.6,13.3l-3.6,13.3c-0.8,3-4.5,4-6.7,1.8l-9.8-9.8l-9.8-9.8
	c-2.2-2.2-1.2-5.9,1.8-6.7l13.3-3.6L-401.1,414.3z"/>
<path class="st1" d="M-640.2,484.5l93.5-162.9c3.1-5.4,10.8-5.4,13.9,0l94.3,162.9c3.1,5.3-0.8,12-6.9,12h-187.8
	C-639.4,496.5-643.3,489.8-640.2,484.5z"/>
<circle class="st2" cx="-592.6" cy="469.4" r="15"/>
<circle class="st3" cx="-521.6" cy="475.2" r="9.4"/>
<path class="st4" d="M-548.3,466.9l-11,4.8c-2,0.9-4.4,0-5.3-2l-19.3-43.9c-0.9-2,0-4.4,2.1-5.3l11-4.8c2-0.9,4.4,0,5.3,2l19.3,43.9
	C-545.4,463.6-546.3,466-548.3,466.9z"/>
<path class="st5" d="M-552.4,357.7l-9.8,17c-0.7,1.2-0.7,2.8,0,4l9.8,17c0.7,1.2,2,2,3.5,2h19.6c1.4,0,2.8-0.8,3.5-2l9.8-17
	c0.7-1.2,0.7-2.8,0-4l-9.8-17c-0.7-1.2-2-2-3.5-2h-19.6C-550.3,355.7-551.7,356.5-552.4,357.7z"/>
<path class="st6" d="M-533.7,419.5l10.5,0.7c1.3,0.1,2.6-0.5,3.4-1.5l6.5-8.3c2.1-2.6,6.2-1.7,7,1.5l2.6,10.2
	c0.3,1.3,1.3,2.3,2.5,2.8l9.9,3.6c3.1,1.1,3.6,5.4,0.8,7.1l-8.9,5.6c-1.1,0.7-1.8,1.9-1.9,3.2l-0.4,10.5c-0.1,3.3-4,5-6.6,2.9
	l-8.1-6.7c-1-0.8-2.4-1.1-3.6-0.8l-10.1,2.9c-3.2,0.9-6-2.3-4.8-5.3l3.9-9.8c0.5-1.2,0.3-2.6-0.4-3.7l-5.8-8.8
	C-539.2,423-537.1,419.3-533.7,419.5z"/>
<path class="st7" d="M-487,453.1c0.8-3,4.5-4,6.7-1.8l9.8,9.8l9.8,9.8c2.2,2.2,1.2,5.9-1.8,6.7l-13.3,3.6l-13.3,3.6
	c-3,0.8-5.7-1.9-4.9-4.9l3.6-13.3L-487,453.1z"/>
<path class="st1" d="M-545.8,695.3l-94.3-162.5c-3.1-5.3,0.8-12,6.9-12l188.2-0.2c6.2,0,10,6.7,6.9,12L-532,695.2
	C-535,700.6-542.7,700.6-545.8,695.3z"/>
<circle class="st2" cx="-535.1" cy="646.4" r="15"/>
<circle class="st3" cx="-494.5" cy="587.9" r="9.4"/>
<path class="st4" d="M-515.1,606.9l-1.3,11.9c-0.2,2.2-2.2,3.8-4.4,3.5l-47.7-5.3c-2.2-0.2-3.8-2.2-3.5-4.4l1.3-11.9
	c0.2-2.2,2.2-3.8,4.4-3.5l47.7,5.3C-516.4,602.7-514.8,604.7-515.1,606.9z"/>
<path class="st5" d="M-611.7,555.8l9.8,17c0.7,1.2,2,2,3.5,2h19.6c1.4,0,2.8-0.8,3.5-2l9.8-17c0.7-1.2,0.7-2.8,0-4l-9.8-17
	c-0.7-1.2-2-2-3.5-2h-19.6c-1.4,0-2.8,0.8-3.5,2l-9.8,17C-612.4,553-612.4,554.5-611.7,555.8z"/>
<path class="st6" d="M-548.8,570.5l5.8-8.8c0.7-1.1,0.9-2.5,0.4-3.7l-3.9-9.8c-1.2-3.1,1.6-6.2,4.8-5.3l10.1,2.8
	c1.3,0.4,2.6,0.1,3.6-0.8l8.1-6.7c2.6-2.1,6.4-0.4,6.6,2.9l0.4,10.5c0.1,1.3,0.8,2.5,1.9,3.2l8.9,5.6c2.8,1.8,2.4,6-0.8,7.1
	l-9.9,3.6c-1.2,0.5-2.2,1.5-2.5,2.8l-2.6,10.2c-0.8,3.2-5,4.1-7,1.5l-6.5-8.3c-0.8-1-2.1-1.6-3.4-1.5l-10.5,0.7
	C-548.5,577-550.7,573.3-548.8,570.5z"/>
<path class="st7" d="M-496.4,546.8c-2.2-2.2-1.2-5.9,1.8-6.7l13.3-3.6l13.3-3.6c3-0.8,5.7,1.9,4.9,4.9l-3.6,13.3l-3.6,13.3
	c-0.8,3-4.5,4-6.7,1.8l-9.8-9.8L-496.4,546.8z"/>
<path class="st1" d="M-316,718.8l-187.9,0.5c-6.2,0-10-6.7-6.9-12l94-163.1c3.1-5.3,10.8-5.3,13.9,0l93.9,162.6
	C-306.1,712.2-309.9,718.8-316,718.8z"/>
<circle class="st2" cx="-353" cy="685.2" r="15"/>
<circle class="st3" cx="-383.4" cy="620.7" r="9.4"/>
<path class="st4" d="M-377.2,648l9.7,7.1c1.8,1.3,2.2,3.8,0.9,5.6l-28.4,38.7c-1.3,1.8-3.8,2.2-5.6,0.9l-9.7-7.1
	c-1.8-1.3-2.2-3.8-0.9-5.6l28.4-38.7C-381.5,647.1-379,646.7-377.2,648z"/>
<path class="st5" d="M-469.8,706.2h19.6c1.4,0,2.8-0.8,3.5-2l9.8-17c0.7-1.2,0.7-2.8,0-4l-9.8-17c-0.7-1.2-2-2-3.5-2h-19.6
	c-1.4,0-2.8,0.8-3.5,2l-9.8,17c-0.7,1.2-0.7,2.8,0,4l9.8,17C-472.5,705.4-471.2,706.2-469.8,706.2z"/>
<path class="st6" d="M-425.6,659.1l-4.7-9.4c-0.6-1.2-1.7-2-3-2.2l-10.4-1.5c-3.3-0.5-4.6-4.5-2.2-6.8l7.5-7.3
	c0.9-0.9,1.4-2.2,1.2-3.5L-439,618c-0.6-3.3,2.9-5.8,5.8-4.2l9.3,4.9c1.2,0.6,2.6,0.6,3.7,0l9.3-4.9c2.9-1.5,6.4,1,5.8,4.2
	l-1.8,10.4c-0.2,1.3,0.2,2.6,1.2,3.5l7.5,7.3c2.4,2.3,1.1,6.3-2.2,6.8l-10.4,1.5c-1.3,0.2-2.4,1-3,2.2l-4.7,9.4
	C-419.8,662.1-424.1,662.1-425.6,659.1z"/>
<path class="st7" d="M-419.9,601.8c-3,0.8-5.7-1.9-4.9-4.9l3.6-13.3l3.6-13.3c0.8-3,4.5-4,6.7-1.8l9.8,9.8l9.8,9.8
	c2.2,2.2,1.2,5.9-1.8,6.7l-13.3,3.6L-419.9,601.8z"/>
<path class="st1" d="M-180.8,531.7l-93.5,162.9c-3.1,5.3-10.8,5.4-13.9,0l-94.3-162.9c-3.1-5.3,0.8-12,6.9-12h187.8
	C-181.5,519.7-177.7,526.3-180.8,531.7z"/>
<circle class="st2" cx="-228.4" cy="546.8" r="15"/>
<circle class="st3" cx="-299.4" cy="541" r="9.4"/>
<path class="st4" d="M-272.7,549.3l11-4.8c2-0.9,4.4,0,5.3,2l19.3,43.9c0.9,2,0,4.4-2.1,5.3l-11,4.8c-2,0.9-4.4,0-5.3-2l-19.3-43.9
	C-275.6,552.5-274.7,550.2-272.7,549.3z"/>
<path class="st5" d="M-268.6,658.5l9.8-17c0.7-1.2,0.7-2.8,0-4l-9.8-17c-0.7-1.2-2-2-3.5-2h-19.6c-1.4,0-2.8,0.8-3.5,2l-9.8,17
	c-0.7,1.2-0.7,2.8,0,4l9.8,17c0.7,1.2,2,2,3.5,2h19.6C-270.6,660.5-269.3,659.7-268.6,658.5z"/>
<path class="st6" d="M-287.2,596.7l-10.5-0.7c-1.3-0.1-2.6,0.5-3.4,1.5l-6.5,8.3c-2.1,2.6-6.2,1.7-7-1.5l-2.6-10.2
	c-0.3-1.3-1.3-2.3-2.5-2.8l-9.9-3.6c-3.1-1.2-3.6-5.4-0.8-7.1l8.9-5.6c1.1-0.7,1.8-1.9,1.9-3.2l0.4-10.5c0.1-3.3,4-5,6.6-2.9
	l8.1,6.7c1,0.8,2.4,1.1,3.6,0.8l10.1-2.8c3.2-0.9,6,2.3,4.8,5.3l-3.9,9.8c-0.5,1.2-0.3,2.6,0.4,3.7l5.8,8.8
	C-281.8,593.2-283.9,596.9-287.2,596.7z"/>
<path class="st7" d="M-334,563.1c-0.8,3-4.5,4-6.7,1.8l-9.8-9.8l-9.8-9.8c-2.2-2.2-1.2-5.9,1.8-6.7l13.3-3.6l13.3-3.6
	c3-0.8,5.7,1.9,4.9,4.9l-3.6,13.3L-334,563.1z"/>
<path class="st1" d="M-275.2,320.9l94.3,162.5c3.1,5.3-0.8,12-6.9,12l-188.2,0.2c-6.2,0-10-6.7-6.9-12L-289,321
	C-286,315.6-278.3,315.6-275.2,320.9z"/>
<circle class="st2" cx="-285.9" cy="369.7" r="15"/>
<circle class="st3" cx="-326.5" cy="428.3" r="9.4"/>
<path class="st4" d="M-305.9,409.3l1.3-11.9c0.2-2.2,2.2-3.8,4.4-3.5l47.7,5.3c2.2,0.2,3.8,2.2,3.5,4.4l-1.3,11.9
	c-0.2,2.2-2.2,3.8-4.4,3.5l-47.7-5.3C-304.6,413.5-306.1,411.5-305.9,409.3z"/>
<path class="st5" d="M-209.3,460.4l-9.8-17c-0.7-1.2-2-2-3.5-2h-19.6c-1.4,0-2.8,0.8-3.5,2l-9.8,17c-0.7,1.2-0.7,2.8,0,4l9.8,17
	c0.7,1.2,2,2,3.5,2h19.6c1.4,0,2.8-0.8,3.5-2l9.8-17C-208.6,463.2-208.6,461.6-209.3,460.4z"/>
<path class="st6" d="M-272.2,445.6l-5.8,8.8c-0.7,1.1-0.9,2.5-0.4,3.7l3.9,9.8c1.2,3.1-1.6,6.2-4.8,5.3l-10.1-2.9
	c-1.3-0.4-2.6-0.1-3.6,0.8l-8.1,6.7c-2.6,2.1-6.4,0.4-6.6-2.9l-0.4-10.5c-0.1-1.3-0.8-2.5-1.9-3.2l-8.9-5.6c-2.8-1.8-2.4-6,0.8-7.1
	l9.9-3.6c1.2-0.5,2.2-1.5,2.5-2.8l2.6-10.2c0.8-3.2,5-4.1,7-1.5l6.5,8.3c0.8,1,2.1,1.6,3.4,1.5l10.5-0.7
	C-272.4,439.2-270.3,442.9-272.2,445.6z"/>
<path class="st7" d="M-324.6,469.3c2.2,2.2,1.2,5.9-1.8,6.7l-13.3,3.6l-13.3,3.6c-3,0.8-5.7-1.9-4.9-4.9l3.6-13.3l3.6-13.3
	c0.8-3,4.5-4,6.7-1.8l9.8,9.8L-324.6,469.3z"/>
<g id="Screens">
	<rect x="118.5" y="407.8" class="st8" width="484" height="278"/>
	<g>
		<rect x="883.5" y="546.6" class="st8" width="284" height="165"/>
		<rect x="883.5" y="382.1" class="st8" width="284" height="165"/>
	</g>
	<rect x="1445.5" y="407.8" class="st8" width="484" height="278"/>
</g>
<g id="Surfaces">
	<path class="st9" d="M359.1,267.7C204.9,267.7,80,392.7,80,546.8s124.9,279.1,279.1,279.1s279.1-125,279.1-279.1
		S513.2,267.7,359.1,267.7z M359.1,685.8c-76.8,0-139-62.2-139-139s62.2-139,139-139s139,62.2,139,139S435.8,685.8,359.1,685.8z"/>
	<g>
		<circle class="st10" cx="324.6" cy="745.3" r="21.5"/>
		<circle class="st10" cx="393.6" cy="745.3" r="21.5"/>
	</g>
	<g>
		<circle class="st10" cx="324.6" cy="347.3" r="21.5"/>
		<circle class="st10" cx="393.6" cy="347.3" r="21.5"/>
	</g>
	<path class="st9" d="M1938,347.8h-504c-16.6,0-30,13.4-30,30v338c0,16.6,13.4,30,30,30h504c16.6,0,30-13.4,30-30v-338
		C1968,361.3,1954.6,347.8,1938,347.8z M1908,650.8c0,8.3-6.7,15-15,15h-414c-8.3,0-15-6.7-15-15v-208c0-8.3,6.7-15,15-15h414
		c8.3,0,15,6.7,15,15V650.8z"/>
	<path class="st9" d="M1024,329.1c-120.2,0-217.7,97.5-217.7,217.7s97.5,217.7,217.7,217.7s217.7-97.5,217.7-217.7
		S1144.2,329.1,1024,329.1z M1024,688.8c-78.4,0-142-63.6-142-142s63.6-142,142-142s142,63.6,142,142S1102.4,688.8,1024,688.8z"/>
	<line class="st11" x1="1166" y1="546.6" x2="1166" y2="547.1"/>
	<line class="st11" x1="882" y1="547.1" x2="882" y2="546.6"/>
	<circle class="st10" cx="989.5" cy="372.3" r="21.5"/>
	<circle class="st10" cx="1058.5" cy="372.3" r="21.5"/>
	<circle class="st10" cx="1651.5" cy="390.3" r="21.5"/>
	<circle class="st10" cx="1720.5" cy="390.3" r="21.5"/>
	<circle class="st10" cx="1651.5" cy="707.3" r="21.5"/>
	<circle class="st10" cx="1720.5" cy="707.3" r="21.5"/>
	<line class="st11" x1="1097.3" y1="424.4" x2="1097.7" y2="424.6"/>
	<line class="st11" x1="955.7" y1="670.6" x2="955.3" y2="670.3"/>
	<line class="st11" x1="952.8" y1="424" x2="953.2" y2="423.7"/>
	<line class="st11" x1="1095.2" y1="669.7" x2="1094.8" y2="669.9"/>
	<circle class="st10" cx="989.5" cy="721.3" r="21.5"/>
	<circle class="st10" cx="1058.5" cy="721.3" r="21.5"/>
</g>
<g id="Dividers">
	<line class="st11" x1="1166" y1="547.1" x2="882" y2="547.1"/>
	<line class="st11" x1="955.3" y1="670.3" x2="1097.3" y2="424.4"/>
	<line class="st11" x1="1094.8" y1="669.9" x2="952.8" y2="424"/>
</g>
<path class="st9" d="M3649.3,185.6H2534.7c-16.6,0-30,13.4-30,30V879c0,16.6,13.4,30,30,30h1114.6c16.6,0,30-13.4,30-30V215.6
	C3679.3,199.1,3665.9,185.6,3649.3,185.6z"/>
<circle class="st8" cx="2696" cy="376.9" r="131.3"/>
<circle class="st8" cx="3092" cy="376.9" r="131.3"/>
<circle class="st8" cx="3478" cy="717.8" r="131.3"/>
<circle class="st8" cx="2696" cy="717.8" r="131.3"/>
<circle class="st8" cx="3092" cy="717.8" r="131.3"/>
<circle class="st8" cx="3478" cy="376.9" r="131.3"/>
<circle class="st11" cx="1686" cy="547.4" r="99.6"/>
<circle class="st12" cx="1536" cy="486.1" r="38.4"/>
<circle class="st12" cx="1536" cy="562.8" r="38.4"/>
<circle class="st12" cx="355.2" cy="750" r="38.4"/>
</svg>
